<svg width="30" height="22" viewBox="0 0 30 22" fill="none" xmlns="http://www.w3.org/2000/svg">
<path d="M28.7145 6.49995H25.3305L24.4305 4.15995C23.4945 1.74795 21.1545 0.199951 18.5625 0.199951H11.4345C8.8425 0.199951 6.5385 1.74795 5.5665 4.15995L4.6305 6.49995H1.2465C0.8865 6.49995 0.5625 6.78795 0.5625 7.18395C0.5625 7.21995 0.5625 7.29195 0.5985 7.32795L0.9225 8.69595C0.9945 8.98395 1.2825 9.19995 1.5705 9.19995H2.7585C1.9665 9.88395 1.4985 10.856 1.4985 11.9V14.6C1.4985 15.464 1.8225 16.2919 2.3985 16.9759V20C2.3985 21.008 3.1905 21.8 4.1985 21.8H5.9985C7.0065 21.8 7.7985 21.008 7.7985 20V18.2H22.1985V20C22.1985 21.008 22.9905 21.8 23.9985 21.8H25.7985C26.8065 21.8 27.5985 21.008 27.5985 20V16.94C28.1745 16.292 28.4985 15.464 28.4985 14.564V11.864C28.4985 10.82 28.0305 9.84795 27.2385 9.16395H28.3545C28.6785 9.16395 28.9305 8.94795 29.0025 8.65995L29.3265 7.29195C29.3985 6.93195 29.1825 6.57195 28.8225 6.46395C28.8225 6.49995 28.7865 6.49995 28.7145 6.49995ZM8.9145 5.49195C9.3105 4.44795 10.3185 3.79995 11.4345 3.79995H18.5625C19.6785 3.79995 20.6865 4.48395 21.0825 5.49195L22.1985 8.29995H7.7985L8.9145 5.49195ZM5.9985 14.6C5.0625 14.672 4.2705 13.9519 4.1985 13.016C4.1985 12.944 4.1985 12.872 4.1985 12.8C4.1265 11.864 4.8465 11.072 5.7825 11H5.9985C7.0785 11 8.6985 12.62 8.6985 13.7C8.6985 14.78 7.0785 14.6 5.9985 14.6ZM23.9985 14.6C22.9185 14.6 21.2985 14.78 21.2985 13.7C21.2985 12.62 22.9185 11 23.9985 11C24.9345 10.928 25.7265 11.648 25.7985 12.584V12.8C25.8705 13.736 25.1505 14.528 24.2145 14.6C24.1425 14.6 24.0705 14.6 23.9985 14.6Z" fill="white"/>
</svg>
