<svg width="36" height="36" viewBox="0 0 36 36" fill="none" xmlns="http://www.w3.org/2000/svg">
<g clip-path="url(#clip0_39_1940)">
<g clip-path="url(#clip1_39_1940)">
<path d="M10.7129 7.13724L11.6875 8.1083V4.69873H8.73828V8.1083L9.71284 7.13724C9.85094 6.99984 10.0323 6.93042 10.2129 6.93042C10.3935 6.93042 10.5748 6.99984 10.7129 7.13724Z" fill="white"/>
<path d="M18.0488 5.40673C18.0488 5.0165 17.7371 4.69849 17.3405 4.69849H13.1051V9.81211C13.1051 10.1025 12.9351 10.3568 12.666 10.4701C12.581 10.5055 12.489 10.5204 12.3969 10.5204C12.2127 10.5204 12.0357 10.4488 11.894 10.315L10.2154 8.63643L8.5298 10.315C8.33147 10.5204 8.02693 10.5771 7.75778 10.4701C7.49571 10.3568 7.32573 10.1025 7.32573 9.81211V4.69849H3.08329C2.69371 4.69849 2.375 5.0165 2.375 5.40673V13.3315H8.26774L7.94194 13.0056C7.6657 12.7301 7.6657 12.284 7.94194 12.007C8.21813 11.7315 8.66436 11.7315 8.9406 12.007L10.4775 13.5369C10.5412 13.6006 10.5908 13.6792 10.6333 13.7713C10.7041 13.9413 10.7041 14.1396 10.6333 14.3088C10.5908 14.3939 10.5412 14.4725 10.4775 14.5426L8.9406 16.0731C8.806 16.2148 8.62184 16.2785 8.44481 16.2785C8.26065 16.2785 8.07649 16.2148 7.94194 16.0731C7.6657 15.7969 7.6657 15.3507 7.94194 15.0738L8.26774 14.748H2.375V19.4232H18.0488V5.40673Z" fill="white"/>
<path d="M32.7159 20.8395H1.70825C1.31871 20.8395 1 21.1574 1 21.5477V27.1847C1 27.5743 1.31871 27.893 1.70825 27.893H3.99593C3.99593 25.2299 6.15614 23.0698 8.81919 23.0698C11.4751 23.0698 13.6424 25.2299 13.6424 27.893H22.3611C22.3611 25.2299 24.5213 23.0698 27.1843 23.0698C29.8403 23.0698 32.0076 25.2299 32.0076 27.893H34.2882C34.6848 27.893 34.9965 27.5743 34.9965 27.1847V23.1264C34.9965 21.8657 33.9766 20.8395 32.7159 20.8395Z" fill="white"/>
<path d="M33.2393 12.8993C33.2393 12.7435 33.1897 12.5948 33.0977 12.4673L29.6626 7.97689C29.5281 7.79986 29.3227 7.6936 29.1031 7.6936H20.0091C19.6195 7.6936 19.3008 8.01232 19.3008 8.40185V19.4224H33.2393V12.8993ZM30.0876 14.8541C30.0876 15.2436 29.7688 15.5624 29.3793 15.5624H23.1608C22.7713 15.5624 22.4525 15.2436 22.4525 14.8541V10.8524C22.4525 10.4558 22.7713 10.1442 23.1608 10.1442H27.5379C27.7645 10.1442 27.9699 10.2434 28.1045 10.4204L29.9388 12.8285C30.038 12.9489 30.0876 13.1047 30.0876 13.2605V14.8541Z" fill="white"/>
<path d="M27.1848 24.4851C25.3029 24.4851 23.7773 26.0107 23.7773 27.8932C23.7773 29.7751 25.3029 31.3014 27.1848 31.3014C29.0673 31.3014 30.5929 29.7751 30.5929 27.8932C30.5929 26.0107 29.0673 24.4851 27.1848 24.4851Z" fill="white"/>
<path d="M9.60643 31.199C11.4378 30.7661 12.5715 28.9305 12.1386 27.0991C11.7057 25.2676 9.87012 24.1339 8.03871 24.5669C6.20731 24.9998 5.0736 26.8354 5.50651 28.6668C5.93943 30.4982 7.77502 31.6319 9.60643 31.199Z" fill="white"/>
</g>
</g>
<defs>
<clipPath id="clip0_39_1940">
<rect width="36" height="36" fill="white"/>
</clipPath>
<clipPath id="clip1_39_1940">
<rect width="36" height="36" fill="white"/>
</clipPath>
</defs>
</svg>
