<svg width="60" height="60" viewBox="0 0 60 60" fill="none" xmlns="http://www.w3.org/2000/svg">
<g clip-path="url(#clip0_39_5848)">
<path d="M59.9678 26.2055L59.9649 23.5912C59.9615 21.1191 57.9257 19.1026 55.4266 19.0962C55.4225 19.0962 55.4186 19.0962 55.4146 19.0962C54.1961 19.0962 53.0536 19.5672 52.1969 20.4229C51.3504 21.2683 50.8851 22.3901 50.8867 23.5812L50.9209 54.0879C50.9213 54.4336 51.0236 54.7716 51.2151 55.0595L53.9793 59.2155C54.3041 59.7039 54.8513 59.998 55.4379 59.9997C55.4396 59.9997 55.4412 59.9997 55.443 59.9997C56.0276 59.9997 56.5743 59.7089 56.901 59.2237L59.6993 55.0677C59.895 54.7771 59.9995 54.4344 59.9991 54.0839L59.9678 26.2055ZM54.4025 23.5771C54.402 23.3271 54.5011 23.0903 54.6814 22.9103C54.8741 22.7178 55.1345 22.6118 55.4148 22.6118C55.4158 22.6118 55.4167 22.6118 55.4177 22.6118C55.9858 22.6133 56.4486 23.0548 56.4494 23.5956L56.4507 24.7726H54.4038L54.4025 23.5771ZM54.4076 28.2883H56.4545L56.476 47.3894H54.4291L54.4076 28.2883ZM55.4519 55.0814L54.436 53.554L54.4331 50.905H56.48L56.4829 53.5504L55.4519 55.0814Z" fill="#F50E30"/>
<path d="M41.5691 0H5.27344C2.36566 0 0 2.36566 0 5.27344V54.7266C0 57.6343 2.36566 60 5.27344 60H41.5691C44.4769 60 46.8425 57.6343 46.8425 54.7266V5.27344C46.8425 2.36566 44.4769 0 41.5691 0ZM43.3269 54.7266C43.3269 55.6958 42.5384 56.4844 41.5691 56.4844H5.27344C4.30418 56.4844 3.51562 55.6958 3.51562 54.7266V5.27344C3.51562 4.30418 4.30418 3.51562 5.27344 3.51562H41.5691C42.5384 3.51562 43.3269 4.30418 43.3269 5.27344V54.7266Z" fill="#F50E30"/>
<path d="M36.8582 9.92334H9.99023C9.01945 9.92334 8.23242 10.7104 8.23242 11.6812C8.23242 12.6519 9.01945 13.439 9.99023 13.439H36.8582C37.8289 13.439 38.616 12.6519 38.616 11.6812C38.616 10.7104 37.8289 9.92334 36.8582 9.92334Z" fill="#F50E30"/>
<path d="M36.8582 17.5059H9.99023C9.01945 17.5059 8.23242 18.2929 8.23242 19.2637C8.23242 20.2345 9.01945 21.0215 9.99023 21.0215H36.8582C37.8289 21.0215 38.616 20.2345 38.616 19.2637C38.616 18.2929 37.8289 17.5059 36.8582 17.5059Z" fill="#F50E30"/>
<path d="M36.8582 25.0881H9.99023C9.01945 25.0881 8.23242 25.8752 8.23242 26.8459C8.23242 27.8167 9.01945 28.6038 9.99023 28.6038H36.8582C37.8289 28.6038 38.616 27.8167 38.616 26.8459C38.616 25.8752 37.8289 25.0881 36.8582 25.0881Z" fill="#F50E30"/>
<path d="M26.5651 32.6707H9.99023C9.01945 32.6707 8.23242 33.4577 8.23242 34.4285C8.23242 35.3992 9.01945 36.1863 9.99023 36.1863H26.5651C27.5359 36.1863 28.3229 35.3992 28.3229 34.4285C28.3229 33.4577 27.5359 32.6707 26.5651 32.6707Z" fill="#F50E30"/>
<path d="M32.585 38.1545C28.2959 38.1545 24.8066 41.5929 24.8066 45.8192C24.8066 50.0454 28.296 53.4837 32.585 53.4837C36.8739 53.4837 40.3633 50.0454 40.3633 45.8192C40.3633 41.5929 36.874 38.1545 32.585 38.1545ZM32.585 49.9682C30.2344 49.9682 28.3223 48.107 28.3223 45.8193C28.3223 43.5316 30.2345 41.6703 32.585 41.6703C34.9354 41.6703 36.8477 43.5316 36.8477 45.8193C36.8477 48.107 34.9355 49.9682 32.585 49.9682Z" fill="#F50E30"/>
</g>
<defs>
<clipPath id="clip0_39_5848">
<rect width="60" height="60" fill="white"/>
</clipPath>
</defs>
</svg>
