<svg width="36" height="36" viewBox="0 0 36 36" fill="none" xmlns="http://www.w3.org/2000/svg">
<g clip-path="url(#clip0_39_1932)">
<path d="M15.3767 28.7725C14.4711 29.0601 13.4865 29.0447 12.582 28.7157C11.6776 28.3864 10.9138 27.7654 10.4048 26.9631C9.45533 26.9235 8.5355 26.5723 7.79832 25.9537C7.70521 25.8757 7.61568 25.7939 7.53026 25.7087L5.17864 30.63C5.00204 30.9995 5.0523 31.4373 5.30773 31.7572C5.56316 32.0772 5.97899 32.2231 6.37862 32.1324L11.0923 31.0635L13.2217 35.4025C13.4013 35.7683 13.7735 36.0001 14.1805 36.0001H14.1863C14.5958 35.9979 14.968 35.7617 15.1443 35.3923L17.878 29.6718C16.9672 29.6413 16.0916 29.3235 15.3767 28.7725Z" fill="white"/>
<path d="M28.2476 25.9537C27.5104 26.5723 26.5903 26.9233 25.6411 26.9628C25.1322 27.7654 24.3681 28.3864 23.4636 28.7154C22.5595 29.0447 21.5748 29.0601 20.6693 28.7725C19.9543 29.3235 19.0787 29.6413 18.168 29.6718L20.9014 35.3923C21.078 35.7617 21.4501 35.9977 21.8596 35.9999H21.8651C22.2724 35.9999 22.6443 35.7683 22.824 35.4025L24.9536 31.0635L29.6673 32.1321C30.0667 32.2231 30.4825 32.0772 30.7379 31.7572C30.9936 31.4373 31.0436 30.9995 30.8673 30.63L28.5154 25.7087C28.43 25.7939 28.3407 25.8755 28.2476 25.9537Z" fill="white"/>
<path d="M31.1501 13.1119C31.533 12.6216 31.6907 11.9896 31.583 11.3782C31.475 10.7668 31.1109 10.2269 30.5835 9.89699C30.168 9.63717 29.9823 9.12795 30.1339 8.66159C30.3259 8.06997 30.258 7.42233 29.9474 6.88455C29.637 6.34678 29.11 5.96418 28.5016 5.83454C28.0223 5.73264 27.6738 5.31736 27.6565 4.82765C27.6345 4.20582 27.3492 3.62053 26.8737 3.22145C26.398 2.8221 25.7721 2.64302 25.1557 2.72927C24.6707 2.79766 24.201 2.5263 24.0173 2.07201C23.7841 1.49523 23.3158 1.0426 22.7322 0.830288C22.1488 0.617978 21.499 0.663571 20.9499 0.955532C20.5171 1.18542 19.9831 1.09121 19.6549 0.727017C19.2388 0.265044 18.6439 0 18.0229 0C17.4019 0 16.807 0.265044 16.3909 0.727017C16.0627 1.09121 15.5287 1.18542 15.0959 0.955532C14.5468 0.663571 13.897 0.617978 13.3136 0.830288C12.73 1.0426 12.2617 1.49523 12.0285 2.07201C11.8448 2.5263 11.3754 2.79766 10.89 2.72927C10.274 2.64302 9.64777 2.8221 9.17207 3.22145C8.69636 3.62053 8.41127 4.20582 8.3893 4.82765C8.37199 5.31736 8.02373 5.73264 7.54418 5.83481C6.93581 5.96418 6.40874 6.34678 6.09838 6.88455C5.78774 7.42233 5.7199 8.06997 5.91189 8.66159C6.06323 9.12795 5.87783 9.63717 5.46228 9.89727C4.93493 10.2269 4.57074 10.7668 4.4628 11.3782C4.35513 11.9899 4.51279 12.6216 4.89566 13.1121C5.19723 13.4983 5.19723 14.0405 4.89566 14.4266C4.51279 14.9169 4.35513 15.5489 4.4628 16.1603C4.57074 16.7719 4.93493 17.3116 5.46228 17.6415C5.87783 17.9013 6.0635 18.4105 5.91216 18.8769C5.7199 19.4685 5.78802 20.1162 6.09838 20.6539C6.40902 21.1917 6.93581 21.5743 7.54418 21.704C8.02373 21.8058 8.37199 22.2211 8.3893 22.7111C8.41127 23.3327 8.69664 23.9182 9.17234 24.3173C9.64805 24.7164 10.2743 24.8957 10.89 24.8092C11.3754 24.7414 11.8448 25.0122 12.0285 25.4668C12.2617 26.0433 12.7303 26.4959 13.3136 26.7082C13.8973 26.9205 14.5468 26.8749 15.0961 26.5832C15.2544 26.4989 15.4266 26.4583 15.5968 26.4583C15.8921 26.4583 16.1827 26.5805 16.3909 26.8115C16.8073 27.2737 17.4022 27.5385 18.0229 27.5385C18.6439 27.5385 19.2388 27.2734 19.6552 26.8115C19.9831 26.4473 20.5171 26.3533 20.9499 26.5832C21.4992 26.8752 22.1488 26.9205 22.7324 26.7082C23.3158 26.4959 23.7841 26.0433 24.0173 25.4668C24.201 25.0122 24.6707 24.7411 25.156 24.8092C25.7718 24.8955 26.398 24.7164 26.8737 24.3173C27.3494 23.9182 27.6348 23.3327 27.6568 22.7111C27.6738 22.2211 28.0223 21.8061 28.5016 21.704C29.11 21.5743 29.637 21.1917 29.9477 20.6539C30.258 20.1162 30.3259 19.4685 30.1339 18.8769C29.9826 18.4108 30.168 17.9013 30.5835 17.6415C31.1111 17.3116 31.4753 16.7719 31.5833 16.1605C31.6909 15.5489 31.5333 14.9172 31.1504 14.4266C30.8486 14.0402 30.8486 13.4983 31.1501 13.1119ZM18.0229 23.1283C12.8624 23.1283 8.66368 18.9299 8.66368 13.7694C8.66368 8.60858 12.8624 4.41017 18.0229 4.41017C23.1834 4.41017 27.3818 8.60858 27.3818 13.7694C27.3818 18.9299 23.1834 23.1283 18.0229 23.1283Z" fill="white"/>
<path d="M18.0237 6.54651C14.0409 6.54651 10.8008 9.78664 10.8008 13.7694C10.8008 17.752 14.0409 20.9921 18.0237 20.9921C22.0065 20.9921 25.2464 17.752 25.2464 13.7694C25.2464 9.78664 22.0062 6.54651 18.0237 6.54651ZM13.5122 12.4445C13.9294 12.0273 14.6056 12.0273 15.0228 12.4445L17.1514 14.5731L21.0246 10.6999C21.4418 10.2827 22.118 10.2827 22.5352 10.6999C22.9524 11.1168 22.9524 11.7933 22.5352 12.2102L17.9067 16.839C17.7065 17.0392 17.4346 17.1518 17.1514 17.1518C16.8682 17.1518 16.5966 17.0392 16.3961 16.839L13.5125 13.9551C13.095 13.5379 13.095 12.8617 13.5122 12.4445Z" fill="white"/>
</g>
<defs>
<clipPath id="clip0_39_1932">
<rect width="36" height="36" fill="white"/>
</clipPath>
</defs>
</svg>
