<svg width="36" height="36" viewBox="0 0 36 36" fill="none" xmlns="http://www.w3.org/2000/svg">
<g clip-path="url(#clip0_39_2314)">
<g clip-path="url(#clip1_39_2314)">
<g clip-path="url(#clip2_39_2314)">
<path fill-rule="evenodd" clip-rule="evenodd" d="M35.971 24.6V24.4607C35.971 23.5794 35.3188 22.8627 34.4459 22.7402L34.0566 22.6855V23.9328C34.0566 24.299 34.3578 24.6 34.7238 24.6H35.971Z" fill="#0D5A5B"/>
<path fill-rule="evenodd" clip-rule="evenodd" d="M3.95519 29.4962C3.50898 29.4962 3.12049 29.1084 3.12306 28.6615L3.15171 23.5956V16.0361C3.15171 15.4633 3.61885 14.9961 4.19162 14.9961H15.0012C15.1661 15.5563 15.3831 16.1017 15.6507 16.6255L15.8734 17.0615H24.1133L25.8947 21.4948L33.2572 22.5284V23.9332C33.2572 24.7409 33.9168 25.4003 34.7243 25.4003H36.0003V28.772C36.0003 29.1579 35.6649 29.4962 35.2783 29.4962H34.2932C34.2932 27.4569 32.6395 25.8033 30.6002 25.8033C28.561 25.8033 26.9073 27.4569 26.9073 29.4962H12.1835C12.1835 27.4569 10.5298 25.8033 8.4906 25.8033C6.45131 25.8033 4.79761 27.457 4.79761 29.4962H3.95519ZM17.6601 24.398C17.1331 24.398 17.1331 25.1994 17.6601 25.1994H18.8538C19.3808 25.1994 19.3808 24.398 18.8538 24.398H17.6601ZM6.87361 22.7022V17.6728H10.8931V22.7022H6.87361ZM12.2954 17.6728H15.814V22.7022H12.2954V17.6728ZM17.2163 17.6728H21.0354L22.598 22.7022H17.2163V17.6728Z" fill="#0D5A5B"/>
<path fill-rule="evenodd" clip-rule="evenodd" d="M2.32165 19.2119H1.59142C0.716193 19.2119 0 19.9281 0 20.8034V23.8414C0 24.7167 0.716193 25.4328 1.59142 25.4328H2.32165V19.2119Z" fill="#0D5A5B"/>
<path fill-rule="evenodd" clip-rule="evenodd" d="M8.49066 26.6035C10.0884 26.6035 11.3837 27.8988 11.3837 29.4965C11.3837 31.0943 10.0884 32.3895 8.49066 32.3895C6.89285 32.3895 5.59766 31.0943 5.59766 29.4965C5.59766 27.8988 6.89285 26.6035 8.49066 26.6035ZM8.49066 28.5319C9.02349 28.5319 9.45533 28.9638 9.45533 29.4965C9.45533 30.0294 9.02349 30.4613 8.49066 30.4613C7.95784 30.4613 7.52591 30.0294 7.52591 29.4965C7.52591 28.9638 7.95784 28.5319 8.49066 28.5319Z" fill="#0D5A5B"/>
<path fill-rule="evenodd" clip-rule="evenodd" d="M30.6 26.6035C32.1978 26.6035 33.493 27.8988 33.493 29.4965C33.493 31.0943 32.1978 32.3895 30.6 32.3895C29.0023 32.3895 27.707 31.0943 27.707 29.4965C27.707 27.8988 29.0023 26.6035 30.6 26.6035ZM30.6 28.5318C31.1329 28.5318 31.5648 28.9637 31.5648 29.4965C31.5648 30.0294 31.1329 30.4612 30.6 30.4612C30.0673 30.4612 29.6354 30.0294 29.6354 29.4965C29.6354 28.9637 30.0673 28.5318 30.6 28.5318Z" fill="#0D5A5B"/>
<path fill-rule="evenodd" clip-rule="evenodd" d="M24.5199 3.61183C25.815 3.67037 27.0364 4.01211 28.1237 4.57625L26.9822 6.55358C26.8725 6.74426 26.9383 6.98767 27.129 7.09729C27.3197 7.20683 27.5632 7.14114 27.6727 6.95046L28.8131 4.9752C29.8716 5.65402 30.7734 6.55574 31.4524 7.61417L29.477 8.75465C29.2862 8.86427 29.2205 9.10768 29.33 9.29835C29.4397 9.48903 29.6831 9.5548 29.8738 9.44526L31.8514 8.30346C32.4158 9.3907 32.7575 10.6121 32.816 11.9074H30.5334C30.3125 11.9074 30.1334 12.0866 30.1334 12.3075C30.1334 12.5284 30.3125 12.7074 30.5334 12.7074H32.816C32.7583 13.9829 32.426 15.1868 31.877 16.2616H16.3629C15.8139 15.1868 15.4815 13.9829 15.4238 12.7074H17.7064C17.9273 12.7074 18.1065 12.5284 18.1065 12.3075C18.1065 12.0866 17.9273 11.9074 17.7064 11.9074H15.4238C15.4825 10.6122 15.824 9.39078 16.3883 8.30337L18.3661 9.44526C18.5568 9.5548 18.8002 9.48911 18.9098 9.29844C19.0194 9.10768 18.9536 8.86427 18.763 8.75465L16.7872 7.614C17.4662 6.55549 18.368 5.65361 19.4265 4.97462L20.5672 6.95038C20.6768 7.14105 20.9203 7.20683 21.1109 7.09729C21.3016 6.98767 21.3673 6.74426 21.2578 6.5535L20.1161 4.57616C21.2035 4.01186 22.4247 3.66996 23.7199 3.61133V5.89403C23.7199 6.11485 23.8991 6.29398 24.12 6.29398C24.3409 6.29398 24.5199 6.11485 24.5199 5.89403V3.61183ZM23.0787 12.9654L22.6731 8.1367L24.7362 12.521C25.0784 12.7293 25.3069 13.1058 25.3069 13.5357C25.3069 14.1914 24.7755 14.7228 24.12 14.7228C23.4643 14.7228 22.9329 14.1914 22.9329 13.5357C22.9329 13.329 22.9857 13.1346 23.0787 12.9654Z" fill="#0D5A5B"/>
</g>
</g>
</g>
<defs>
<clipPath id="clip0_39_2314">
<rect width="36" height="36" fill="white"/>
</clipPath>
<clipPath id="clip1_39_2314">
<rect width="36" height="36" fill="white"/>
</clipPath>
<clipPath id="clip2_39_2314">
<rect width="36" height="36" fill="white"/>
</clipPath>
</defs>
</svg>
